<svg width="142" height="27" viewBox="0 0 142 27" fill="none" xmlns="http://www.w3.org/2000/svg">
<path d="M47.1 11.72C48.38 11.72 49.4067 12.1467 50.18 13C50.9533 13.84 51.34 15 51.34 16.48V23H47.94V16.94C47.94 16.1933 47.7467 15.6133 47.36 15.2C46.9733 14.7867 46.4533 14.58 45.8 14.58C45.1467 14.58 44.6267 14.7867 44.24 15.2C43.8533 15.6133 43.66 16.1933 43.66 16.94V23H40.24V8.2H43.66V13.34C44.0067 12.8467 44.48 12.4533 45.08 12.16C45.68 11.8667 46.3533 11.72 47.1 11.72ZM58.7966 23.16C57.7032 23.16 56.7166 22.9267 55.8366 22.46C54.9699 21.9933 54.2832 21.3267 53.7766 20.46C53.2832 19.5933 53.0366 18.58 53.0366 17.42C53.0366 16.2733 53.2899 15.2667 53.7966 14.4C54.3032 13.52 54.9966 12.8467 55.8766 12.38C56.7566 11.9133 57.7432 11.68 58.8366 11.68C59.9299 11.68 60.9166 11.9133 61.7966 12.38C62.6766 12.8467 63.3699 13.52 63.8766 14.4C64.3832 15.2667 64.6366 16.2733 64.6366 17.42C64.6366 18.5667 64.3766 19.58 63.8566 20.46C63.3499 21.3267 62.6499 21.9933 61.7566 22.46C60.8766 22.9267 59.8899 23.16 58.7966 23.16ZM58.7966 20.2C59.4499 20.2 60.0032 19.96 60.4566 19.48C60.9232 19 61.1566 18.3133 61.1566 17.42C61.1566 16.5267 60.9299 15.84 60.4766 15.36C60.0366 14.88 59.4899 14.64 58.8366 14.64C58.1699 14.64 57.6166 14.88 57.1766 15.36C56.7366 15.8267 56.5166 16.5133 56.5166 17.42C56.5166 18.3133 56.7299 19 57.1566 19.48C57.5966 19.96 58.1432 20.2 58.7966 20.2ZM69.8709 13.7C70.2709 13.0867 70.7709 12.6067 71.3709 12.26C71.9709 11.9 72.6376 11.72 73.3709 11.72V15.34H72.4309C71.5776 15.34 70.9376 15.5267 70.5109 15.9C70.0843 16.26 69.8709 16.9 69.8709 17.82V23H66.4509V11.84H69.8709V13.7ZM81.2256 20.1V23H79.4856C78.2456 23 77.279 22.7 76.5856 22.1C75.8923 21.4867 75.5456 20.4933 75.5456 19.12V14.68H74.1856V11.84H75.5456V9.12H78.9656V11.84H81.2056V14.68H78.9656V19.16C78.9656 19.4933 79.0456 19.7333 79.2056 19.88C79.3656 20.0267 79.6323 20.1 80.0056 20.1H81.2256ZM97.3706 11.72C98.7573 11.72 99.8573 12.14 100.671 12.98C101.497 13.82 101.911 14.9867 101.911 16.48V23H98.5106V16.94C98.5106 16.22 98.3173 15.6667 97.9306 15.28C97.5573 14.88 97.0373 14.68 96.3706 14.68C95.704 14.68 95.1773 14.88 94.7906 15.28C94.4173 15.6667 94.2306 16.22 94.2306 16.94V23H90.8306V16.94C90.8306 16.22 90.6373 15.6667 90.2506 15.28C89.8773 14.88 89.3573 14.68 88.6906 14.68C88.024 14.68 87.4973 14.88 87.1106 15.28C86.7373 15.6667 86.5506 16.22 86.5506 16.94V23H83.1306V11.84H86.5506V13.24C86.8973 12.7733 87.3506 12.4067 87.9106 12.14C88.4706 11.86 89.104 11.72 89.8106 11.72C90.6506 11.72 91.3973 11.9 92.0506 12.26C92.7173 12.62 93.2373 13.1333 93.6106 13.8C93.9973 13.1867 94.524 12.6867 95.1906 12.3C95.8573 11.9133 96.584 11.72 97.3706 11.72ZM114.822 17.24C114.822 17.56 114.803 17.8933 114.763 18.24H107.023C107.076 18.9333 107.296 19.4667 107.683 19.84C108.083 20.2 108.569 20.38 109.143 20.38C109.996 20.38 110.589 20.02 110.923 19.3H114.563C114.376 20.0333 114.036 20.6933 113.543 21.28C113.063 21.8667 112.456 22.3267 111.723 22.66C110.989 22.9933 110.169 23.16 109.263 23.16C108.169 23.16 107.196 22.9267 106.343 22.46C105.489 21.9933 104.823 21.3267 104.343 20.46C103.863 19.5933 103.623 18.58 103.623 17.42C103.623 16.26 103.856 15.2467 104.323 14.38C104.803 13.5133 105.469 12.8467 106.323 12.38C107.176 11.9133 108.156 11.68 109.263 11.68C110.343 11.68 111.303 11.9067 112.143 12.36C112.983 12.8133 113.636 13.46 114.103 14.3C114.583 15.14 114.822 16.12 114.822 17.24ZM111.323 16.34C111.323 15.7533 111.123 15.2867 110.723 14.94C110.323 14.5933 109.823 14.42 109.223 14.42C108.649 14.42 108.163 14.5867 107.763 14.92C107.376 15.2533 107.136 15.7267 107.043 16.34H111.323ZM120.047 8.2V23H116.627V8.2H120.047ZM127.605 23.16C126.512 23.16 125.525 22.9267 124.645 22.46C123.778 21.9933 123.092 21.3267 122.585 20.46C122.092 19.5933 121.845 18.58 121.845 17.42C121.845 16.2733 122.098 15.2667 122.605 14.4C123.112 13.52 123.805 12.8467 124.685 12.38C125.565 11.9133 126.552 11.68 127.645 11.68C128.738 11.68 129.725 11.9133 130.605 12.38C131.485 12.8467 132.178 13.52 132.685 14.4C133.192 15.2667 133.445 16.2733 133.445 17.42C133.445 18.5667 133.185 19.58 132.665 20.46C132.158 21.3267 131.458 21.9933 130.565 22.46C129.685 22.9267 128.698 23.16 127.605 23.16ZM127.605 20.2C128.258 20.2 128.812 19.96 129.265 19.48C129.732 19 129.965 18.3133 129.965 17.42C129.965 16.5267 129.738 15.84 129.285 15.36C128.845 14.88 128.298 14.64 127.645 14.64C126.978 14.64 126.425 14.88 125.985 15.36C125.545 15.8267 125.325 16.5133 125.325 17.42C125.325 18.3133 125.538 19 125.965 19.48C126.405 19.96 126.952 20.2 127.605 20.2Z" fill="#078C03"/>
<path d="M25.3819 13.8967L26.1149 13.4631C27.0056 12.8478 27.6693 11.9067 27.959 10.7799C28.6136 8.23417 27.0997 5.66181 24.5605 5.00521C23.4365 4.71458 22.3147 4.84734 21.3313 5.30517L20.6245 5.72326L10.9855 11.4425L9.51949 12.3096C9.18324 12.6678 8.93496 13.1154 8.80619 13.6162C8.74181 13.8666 8.72442 14.1069 8.70703 14.3472L9.64936 15.9484L9.30904 16.1497L6.90062 17.5743L5.33963 17.1706C5.33519 15.6339 4.31839 14.2361 2.75739 13.8324C2.38275 13.7355 2.03364 13.712 1.67381 13.7303L0.0427873 20.0737C0.348974 20.2642 0.686704 20.4183 1.04053 20.5097C2.26851 20.8273 3.52249 20.4394 4.36279 19.5885L17.0797 22.8769L23.4673 19.0986L26.1375 17.5192C26.2589 17.3058 26.3388 17.0816 26.4031 16.8312C26.4943 16.4765 26.5231 16.1056 26.4787 15.7603L25.3819 13.8967ZM8.35755 17.951L10.19 16.8671L10.2827 17.0246L11.2714 18.7045L8.35755 17.951ZM24.5786 12.5317L21.5508 7.38702C22.2582 6.88009 23.1826 6.65178 24.0776 6.88321C25.6802 7.29762 26.6534 8.95128 26.2403 10.558C26.0043 11.4761 25.3787 12.1823 24.5786 12.5317Z" fill="#078C03"/>
</svg>
